PathFileType   4   (X/Y/Z)
DataRate	CameraRate	NumFrames	NumMarkers	Units	OrigDataRate	OrigDataStartFrame	OrigNumFrames
120.0	120.0	11	37	mm	120.0	1	81
Frame#	Time	midhip	hip_r	hip_l	knee_r	knee_l	ankle_r	ankle_l	midasis	asis_r	asis_l	psis_r	psis_l	epicondLat_r	epicondLat_l	epicondMed_r	epicondMed_l	malleolusLat_r	malleolusLat_l	malleolusMedv_r	malleolusMedv_l	neck	subclavicle_r	subclavicle_l	sternalnotch	xyphoidprocess	thighwand_r	thighwand_l	upperleg1_r	upperleg1_l	upperleg2_r	upperleg2_l	shankwand_r	shankwand_l	lowerleg1_r	lowerleg1_l	toe_r	toe_l
 	 	X1	Y1	Z1	X2	Y2	Z2	X3	Y3	Z3	X4	Y4	Z4	X5	Y5	Z5	X6	Y6	Z6	X7	Y7	Z7	X8	Y8	Z8	X9	Y9	Z9	X10	Y10	Z10	X11	Y11	Z11	X12	Y12	Z12	X13	Y13	Z13	X14	Y14	Z14	X15	Y15	Z15	X16	Y16	Z16	X17	Y17	Z17	X18	Y18	Z18	X19	Y19	Z19	X20	Y20	Z20	X21	Y21	Z21	X22	Y22	Z22	X23	Y23	Z23	X24	Y24	Z24	X25	Y25	Z25	X26	Y26	Z26	X27	Y27	Z27	X28	Y28	Z28	X29	Y29	Z29	X30	Y30	Z30	X31	Y31	Z31	X32	Y32	Z32	X33	Y33	Z33	X34	Y34	Z34	X35	Y35	Z35	X36	Y36	Z36	X37	Y37	Z37

	1	0.06667	481.082	830.507	-287.388	470.797	811.399	-223.959	484.760	813.331	-340.582	388.075	438.579	-214.517	614.077	471.322	-331.936	98.694	176.935	-250.133	629.737	65.867	-338.581	537.213	891.421	-267.843	517.100	888.782	-170.527	557.326	894.061	-365.159	380.289	922.535	-278.332	390.786	922.652	-331.771	384.783	440.699	-159.657	635.557	478.189	-381.552	398.330	436.918	-272.562	616.391	452.130	-295.221	86.113	186.054	-214.908	639.233	66.845	-375.878	122.838	169.655	-272.738	648.579	80.703	-310.916	460.646	1341.324	-269.140	552.292	1251.631	-230.973	545.321	1251.491	-334.285	535.696	1263.827	-286.548	562.526	1091.384	-287.478	565.648	582.660	-186.960	674.194	666.746	-286.071	492.392	646.431	-159.683	615.813	690.322	-366.882	466.915	564.833	-162.284	650.015	609.363	-357.778	159.376	272.718	-136.689	609.209	183.866	-442.645	170.118	272.748	-175.410	616.184	190.477	-399.716	126.646	66.018	-216.842	759.976	49.006	-341.431
	2	0.07500	498.271	831.719	-288.379	488.573	812.307	-225.219	501.744	815.146	-341.916	418.238	436.229	-211.465	625.566	471.537	-332.628	120.943	185.533	-248.370	630.887	65.542	-339.071	554.324	892.952	-268.964	534.825	889.507	-171.278	573.823	896.397	-366.649	397.246	923.273	-277.547	407.264	924.008	-331.033	414.554	438.922	-156.655	646.796	477.842	-382.425	430.926	432.737	-269.560	626.644	451.560	-296.922	108.924	194.569	-212.928	640.856	66.263	-376.251	144.011	177.885	-271.842	651.117	79.913	-311.747	477.646	1342.589	-269.633	569.471	1252.655	-231.819	561.947	1252.214	-335.034	552.489	1264.886	-287.275	579.077	1092.216	-287.859	591.114	585.520	-184.599	689.265	666.311	-288.006	515.800	646.800	-157.835	630.956	689.674	-368.643	493.743	564.090	-159.959	663.270	607.944	-359.966	185.245	277.348	-134.205	614.641	183.833	-443.536	196.374	277.116	-172.944	622.248	189.910	-401.246	143.111	72.254	-215.981	761.263	46.259	-341.715
	3	0.08333	515.004	832.502	-289.593	505.957	813.028	-226.387	518.402	816.649	-343.142	448.999	434.184	-208.485	636.208	471.461	-333.407	144.898	193.590	-246.872	631.825	65.278	-339.515	571.166	894.171	-270.021	552.231	890.033	-171.992	590.102	898.309	-368.051	413.989	923.873	-276.896	423.519	925.182	-330.454	444.791	437.403	-153.741	657.197	477.216	-383.373	465.076	429.290	-267.675	635.536	449.715	-297.671	133.425	202.399	-211.193	642.151	65.725	-376.602	167.248	185.587	-270.641	652.962	79.302	-312.344	494.729	1343.695	-269.901	586.563	1252.893	-232.473	578.626	1252.380	-335.487	569.312	1265.578	-287.798	595.028	1092.340	-288.283	616.453	588.771	-182.024	703.726	665.246	-289.907	538.435	647.563	-155.442	645.295	687.258	-370.692	520.436	563.387	-157.696	675.452	604.731	-362.116	212.508	281.375	-131.888	619.370	183.679	-444.346	224.161	280.835	-170.730	627.361	189.286	-402.639	162.987	78.684	-214.651	762.247	43.990	-341.941
	4	0.09167	531.431	833.058	-291.011	522.961	813.590	-227.488	534.727	817.873	-344.291	480.108	432.645	-205.612	645.918	471.204	-334.227	170.540	200.707	-245.618	632.596	65.098	-339.845	587.769	895.092	-271.051	569.363	890.371	-172.711	606.174	899.814	-369.390	430.557	924.398	-276.396	439.601	926.233	-330.049	475.301	436.325	-150.947	666.737	476.427	-384.322	497.386	427.070	-265.355	644.096	447.795	-298.358	159.522	209.221	-209.724	643.107	65.266	-376.882	192.783	192.296	-268.988	653.848	78.879	-312.532	511.812	1344.700	-270.064	603.347	1252.599	-232.897	595.530	1252.544	-335.659	586.119	1266.021	-288.101	610.647	1092.202	-289.188	641.572	592.450	-179.404	717.407	663.715	-291.612	560.721	648.446	-152.873	659.158	684.592	-372.691	546.266	563.370	-155.158	687.253	601.487	-364.011	240.913	284.833	-129.793	623.246	183.508	-444.982	253.087	284.373	-168.679	631.267	188.769	-403.451	186.353	84.850	-212.882	762.917	42.198	-342.005
	5	0.10000	547.637	833.529	-292.602	539.629	814.049	-228.562	550.726	818.901	-345.408	511.325	431.775	-202.875	654.651	470.892	-335.048	197.870	206.477	-244.564	633.247	65.001	-340.034	604.166	895.779	-272.099	586.288	890.567	-173.483	622.044	900.992	-370.715	446.980	924.933	-276.014	455.558	927.247	-329.781	505.918	435.843	-148.293	675.423	475.602	-385.214	527.377	425.821	-262.268	652.128	446.784	-300.309	187.155	214.714	-208.514	643.742	64.902	-377.076	220.306	198.168	-267.579	654.087	78.589	-312.471	528.825	1345.609	-270.050	619.857	1252.300	-233.094	612.124	1252.943	-335.800	602.875	1266.359	-288.176	625.928	1092.201	-290.342	666.436	596.604	-176.949	730.175	661.911	-293.000	583.038	649.540	-150.632	672.625	683.239	-374.245	571.326	564.296	-152.535	698.757	599.604	-365.748	270.234	287.733	-127.958	626.196	183.416	-445.408	282.758	287.978	-166.831	633.951	188.623	-403.525	213.150	90.320	-210.739	763.285	40.859	-341.868
	6	0.10833	563.725	834.107	-294.150	556.016	814.485	-229.634	566.405	819.835	-346.523	542.442	431.676	-200.293	662.411	470.627	-335.854	226.893	210.559	-243.667	633.822	64.970	-340.091	620.399	896.318	-273.206	603.088	890.687	-174.344	637.709	901.949	-372.069	463.288	925.565	-275.688	471.438	928.320	-329.572	536.512	436.064	-145.790	683.283	474.832	-386.023	557.683	425.182	-259.593	659.873	446.844	-302.332	216.291	218.602	-207.540	644.102	64.633	-377.192	249.453	203.254	-266.632	653.959	78.396	-312.374	545.749	1346.472	-269.902	636.320	1252.185	-233.019	628.622	1253.487	-335.827	619.575	1266.717	-288.017	641.342	1092.390	-291.262	691.046	601.276	-174.859	741.981	659.986	-294.026	605.697	651.198	-149.187	684.991	683.201	-375.137	596.636	565.764	-150.560	709.533	599.062	-366.945	300.301	290.038	-126.400	628.260	183.461	-445.649	313.017	291.235	-165.249	635.631	188.855	-403.176	243.207	94.760	-208.296	763.390	39.914	-341.561
	7	0.11667	579.683	834.857	-295.409	572.186	814.976	-230.693	581.780	820.766	-347.629	573.299	432.371	-197.887	669.267	470.458	-336.647	257.591	212.736	-242.894	634.350	64.983	-340.062	636.513	896.790	-274.383	619.852	890.805	-175.304	653.174	902.775	-373.463	479.514	926.377	-275.344	487.286	929.546	-329.336	566.984	437.021	-143.449	690.366	474.156	-386.761	588.542	425.495	-257.587	667.123	447.643	-302.616	246.906	220.694	-206.773	644.253	64.444	-377.262	280.913	205.405	-265.858	653.634	78.349	-312.356	562.667	1347.290	-269.618	652.773	1252.279	-232.645	645.403	1254.144	-335.492	636.247	1267.182	-287.619	657.206	1092.762	-291.701	715.414	606.493	-173.282	752.885	658.001	-294.746	628.567	653.514	-148.137	696.159	683.508	-375.445	622.373	567.837	-149.117	719.353	599.078	-367.123	331.009	291.661	-125.124	629.579	183.652	-445.775	343.792	293.620	-163.968	636.631	189.229	-402.861	276.277	97.980	-205.606	763.299	39.285	-341.157
	8	0.12500	595.289	835.593	-296.349	588.172	815.577	-231.711	596.863	821.750	-348.698	603.795	433.810	-195.674	675.345	470.390	-337.448	289.922	212.934	-242.227	634.840	65.020	-340.005	652.538	897.245	-275.616	636.625	890.971	-176.354	668.451	903.520	-374.877	495.695	927.424	-274.925	503.146	930.987	-329.003	597.269	438.678	-141.280	696.734	473.566	-387.474	618.831	426.539	-255.231	673.736	448.542	-301.624	278.967	220.906	-206.190	644.265	64.313	-377.327	313.560	206.165	-265.536	653.314	78.461	-312.465	579.653	1348.137	-269.190	669.225	1252.665	-231.951	661.975	1254.851	-334.938	652.927	1267.784	-286.987	672.966	1093.293	-291.512	739.545	612.258	-172.292	763.055	655.922	-295.304	651.616	656.482	-147.456	706.625	683.533	-375.435	648.213	570.687	-147.826	728.496	598.935	-366.605	362.315	292.494	-124.127	630.361	183.954	-445.879	375.099	294.920	-163.003	637.232	189.682	-402.755	312.070	99.936	-202.698	763.085	38.881	-340.742
	9	0.13333	610.440	836.209	-297.066	603.997	816.305	-232.644	611.669	822.801	-349.685	633.884	435.890	-193.667	680.809	470.393	-338.285	323.824	211.212	-241.663	635.284	65.069	-339.981	668.497	897.694	-276.870	653.438	891.201	-177.462	683.556	904.188	-376.278	511.869	928.725	-274.399	519.055	932.662	-328.541	627.324	440.946	-139.294	702.464	473.026	-388.228	649.393	427.683	-251.769	679.275	449.045	-300.881	312.439	219.256	-205.775	644.196	64.225	-377.426	348.148	204.683	-264.821	653.030	78.659	-312.643	596.605	1349.014	-268.641	685.763	1253.258	-230.909	678.531	1255.627	-334.201	669.653	1268.498	-286.133	688.935	1093.964	-290.853	763.424	618.535	-171.884	772.724	653.659	-295.896	674.345	660.125	-147.351	716.894	683.088	-375.270	674.086	574.304	-146.528	737.111	598.234	-366.094	394.217	292.432	-123.403	630.838	184.315	-446.050	407.173	295.095	-162.298	637.596	190.149	-402.820	350.281	100.707	-199.575	762.821	38.626	-340.389
	10	0.14167	625.217	836.741	-297.629	619.658	817.133	-233.458	626.220	823.889	-350.552	663.551	438.481	-191.871	685.840	470.424	-339.183	359.221	207.721	-241.207	635.669	65.135	-340.034	684.394	898.104	-278.107	670.272	891.462	-178.586	698.515	904.746	-377.628	528.068	930.250	-273.770	535.032	934.537	-327.957	657.112	443.707	-137.499	707.642	472.496	-389.089	679.361	429.751	-248.566	683.389	449.216	-301.073	347.273	215.848	-205.521	644.094	64.171	-377.589	384.381	201.359	-263.904	652.784	78.897	-312.847	613.505	1349.859	-267.876	702.513	1254.110	-229.621	695.439	1256.559	-333.152	686.429	1269.280	-285.090	705.708	1094.859	-289.784	787.011	625.245	-171.993	782.148	651.118	-296.716	696.480	664.220	-147.209	727.153	682.137	-375.346	699.489	578.525	-145.353	745.131	596.967	-366.170	426.723	291.402	-122.939	631.215	184.678	-446.356	440.184	294.119	-161.760	637.817	190.543	-403.061	390.593	100.443	-196.238	762.565	38.457	-340.144
	11	0.15000	639.860	837.306	-298.045	635.146	817.993	-234.135	640.555	824.952	-351.276	692.787	441.452	-190.276	690.613	470.443	-340.162	396.034	202.671	-240.866	635.996	65.229	-340.188	700.224	898.413	-279.278	687.080	891.686	-179.675	713.367	905.140	-378.881	544.317	931.922	-273.063	551.080	936.525	-327.283	686.591	446.838	-135.893	712.376	471.951	-390.106	707.449	432.802	-246.257	686.800	449.283	-302.136	383.415	210.845	-205.423	643.997	64.153	-377.832	421.848	196.716	-263.214	652.590	79.157	-313.143	630.410	1350.630	-266.929	719.287	1255.097	-228.166	712.570	1257.551	-331.929	703.250	1270.059	-283.908	722.871	1095.857	-288.433	810.241	632.275	-172.512	791.547	648.246	-297.901	718.760	668.458	-147.075	737.407	680.845	-376.067	724.336	583.094	-144.545	752.828	595.321	-367.063	459.829	289.385	-122.723	631.641	185.009	-446.830	474.056	291.999	-161.346	638.146	190.847	-403.555	432.689	99.322	-192.697	762.358	38.333	-340.028
